PathFileType	4	(X/Y/Z)	s07c0303.trc
DataRate	CameraRate	NumFrames	NumMarkers	Units	OrigDataRate	OrigDataStartFrame	OrigNumFrames
200	200	4	48	mm	200	1000	2000
Frame#	Time	racr			lacr			c7			jug			rlel			rdr			llel			ldr			s2			lic			ric			lasi			rasi			rpsi			lpsi			rgt			lgt			rth1			rth2			rth3			rth4			rlfc			rmfc			rsh1			rsh2			rsh3			rsh4			rlmal			rcal			rtoe			rmt5			lth1			lth2			lth4			lth3			llfc			lmfc			lsh1			lsh2			lsh3			lsh4			llmal			lcal			ltoe			lmt5			SBIKE			LBIKE			RBIKE			
		X1	Y1	Z1	X2	Y2	Z2	X3	Y3	Z3	X4	Y4	Z4	X5	Y5	Z5	X6	Y6	Z6	X7	Y7	Z7	X8	Y8	Z8	X9	Y9	Z9	X10	Y10	Z10	X11	Y11	Z11	X12	Y12	Z12	X13	Y13	Z13	X14	Y14	Z14	X15	Y15	Z15	X16	Y16	Z16	X17	Y17	Z17	X18	Y18	Z18	X19	Y19	Z19	X20	Y20	Z20	X21	Y21	Z21	X22	Y22	Z22	X23	Y23	Z23	X24	Y24	Z24	X25	Y25	Z25	X26	Y26	Z26	X27	Y27	Z27	X28	Y28	Z28	X29	Y29	Z29	X30	Y30	Z30	X31	Y31	Z31	X32	Y32	Z32	X33	Y33	Z33	X34	Y34	Z34	X35	Y35	Z35	X36	Y36	Z36	X37	Y37	Z37	X38	Y38	Z38	X39	Y39	Z39	X40	Y40	Z40	X41	Y41	Z41	X42	Y42	Z42	X43	Y43	Z43	X44	Y44	Z44	X45	Y45	Z45	X46	Y46	Z46	X47	Y47	Z47	X48	Y48	Z48	
1000	5.0000	792.965792	1424.635078	-143.485867	769.724374	1377.103570	-448.607442	776.841304	1456.798889	-303.443958	717.558289	1310.266692	-284.019950	613.699809	1152.984406	20.364299	729.942857	907.961043	-73.319038	538.496300	1108.450970	-540.580067	718.441011	913.753521	-424.666403	179.703990	1282.592315	-207.467812	295.721455	1296.247446	-365.138769	377.840012	1297.346131	-98.855317	331.210767	1225.222132	-360.529315	380.921739	1239.645024	-115.721510	222.825916	1317.106642	-165.565790	211.573244	1324.148807	-272.252502	314.950419	1170.654568	-41.597798	227.170811	1160.248194	-386.834264	412.384843	1041.158503	-65.654646	469.194789	977.455921	-87.550371	492.917386	895.621508	-90.160532	493.642374	994.397790	-109.633454	514.917009	765.937239	-129.126623	485.211594	762.172775	-230.882686	383.569381	711.310357	-97.006781	314.255321	657.567466	-106.299985	228.457829	642.287919	-95.823131	320.042275	640.785965	-144.456126	100.527377	590.266541	-85.440054	22.453489	592.791228	-99.167869	166.600300	363.765168	-129.288800	101.025965	413.230336	-58.375415	257.602680	1040.317904	-403.174352	306.935123	967.557220	-412.996486	341.559752	979.308553	-412.137735	315.047542	879.331863	-409.027173	371.607242	713.361911	-389.919727	371.868095	692.971857	-299.442835	307.895189	579.580124	-410.001242	301.018458	495.071836	-392.054118	249.447381	420.650457	-395.068493	308.225133	496.104352	-349.830442	193.348692	297.855955	-391.209835	118.776977	269.667820	-357.466790	402.376919	204.257147	-366.908016	315.712869	192.809130	-428.704579	-260.079437	962.360793	-237.893509	-82.794773	78.993339	-435.952218	-82.504214	79.324533	-38.404250	
1001	5.0050	791.667823	1426.303212	-139.015942	771.942495	1378.811334	-443.993335	777.145525	1458.726122	-299.103427	717.877476	1311.963642	-280.254355	612.560948	1152.654745	21.272476	729.750068	907.986583	-73.099810	542.190397	1111.074342	-542.353178	718.605330	913.337151	-424.584758	179.571080	1280.297877	-212.107012	299.128974	1292.409242	-367.162042	375.707830	1297.838099	-99.731117	334.306663	1221.181676	-361.289032	379.595826	1240.087267	-115.970706	221.717407	1315.342467	-170.032898	212.747846	1320.925371	-277.131105	312.964352	1171.807950	-42.036903	230.306149	1156.053476	-388.283170	413.361025	1043.629169	-63.320500	471.264108	980.897868	-84.798837	496.064392	899.352217	-87.724043	496.000469	998.421554	-106.340889	521.570039	770.844960	-126.614967	493.493059	766.723916	-228.731016	390.282107	716.743377	-95.778409	320.618646	663.456740	-105.737975	234.756527	648.698776	-95.770603	326.613761	646.471931	-143.615751	106.816700	597.395303	-86.017488	28.722028	600.134175	-99.608027	174.066849	371.410226	-130.998144	109.275623	421.288143	-58.615963	257.645661	1035.839950	-404.008061	304.745978	961.375933	-412.521442	339.791508	972.013816	-410.943787	309.960478	873.481116	-408.493081	361.354945	706.415056	-387.366943	359.868147	686.681009	-297.545616	298.275325	572.634261	-407.700560	291.934448	488.288444	-390.394014	240.869411	413.552043	-394.019673	298.836507	490.102168	-348.817835	185.218864	290.867535	-390.747594	110.897046	262.838057	-357.193643	394.351630	196.589285	-366.512169	307.653115	185.503873	-428.180977	-260.264647	962.290504	-237.934494	-82.816801	78.999017	-435.935842	-82.534016	79.284401	-38.393598	
1002	5.0100	790.116669	1428.108563	-134.186200	774.087920	1380.787465	-439.249851	777.361475	1461.015808	-294.351957	717.915763	1314.073081	-276.314140	611.242117	1152.359994	22.217518	729.625454	908.039911	-72.854158	546.432019	1113.816265	-544.049941	718.886579	912.936459	-424.547260	179.568600	1277.923946	-216.674516	302.732124	1288.756241	-369.121272	373.575638	1298.430767	-100.719030	337.517591	1217.097245	-362.088889	378.648951	1241.267516	-115.233520	220.282519	1313.817454	-174.138631	214.035884	1317.917221	-281.668008	310.858082	1173.026513	-42.562997	233.463171	1151.851492	-389.775689	413.846839	1046.242206	-61.044402	472.841963	984.644856	-81.195188	499.119786	903.100460	-85.242577	497.683211	1002.530288	-103.152573	528.507849	776.082627	-123.751697	502.041614	771.705309	-226.305567	397.438520	722.147171	-94.276945	327.668771	669.033940	-104.947167	241.585852	654.598582	-95.631921	332.037695	651.471000	-144.483255	113.993628	603.775842	-86.445736	35.824098	606.657244	-99.830871	183.419122	379.282127	-130.981247	118.074120	428.378183	-58.991914	257.682960	1031.475983	-404.856877	302.516085	955.564235	-412.112372	337.818751	964.975559	-409.773662	301.922947	861.434996	-395.285698	350.635714	700.458773	-385.008848	345.891136	681.337850	-295.296189	288.253293	566.647992	-406.154521	282.378252	482.314187	-389.031635	231.887860	407.276499	-393.166229	288.718509	483.971181	-347.581411	176.899061	284.291089	-390.302208	102.794713	256.890066	-356.880524	386.015315	189.212333	-366.188865	299.191553	178.689401	-427.748379	-260.396177	962.198673	-237.919369	-82.801033	78.987988	-435.897583	-82.541224	79.241577	-38.378972	
1003	5.0150	788.347076	1430.047540	-129.026676	776.142094	1383.098485	-434.377568	777.470468	1463.491840	-289.296880	717.751203	1316.402967	-272.140171	609.867610	1152.008708	23.123792	729.630052	908.187746	-72.575036	551.171722	1116.642159	-545.611976	719.296684	912.564007	-424.579829	179.668407	1275.663030	-221.615415	306.482089	1285.006277	-370.985526	371.407522	1299.125000	-101.731438	340.671157	1213.165376	-362.792317	377.097892	1241.962668	-115.460050	217.739376	1312.921397	-177.076540	215.408269	1314.893121	-286.262640	308.605883	1174.124951	-43.300163	236.508963	1147.616704	-391.153442	414.010393	1048.951222	-58.901195	473.975341	988.595708	-78.537031	502.269004	907.400388	-82.502460	498.841192	1006.922316	-100.227065	535.732960	781.456214	-120.622989	510.840221	777.181976	-223.721966	405.053688	727.442348	-92.525443	335.212767	674.513896	-103.854961	249.049599	659.935774	-95.226554	342.530483	657.534042	-141.335753	121.809752	609.708659	-86.567766	46.551235	616.090272	-103.079676	195.593486	387.552107	-129.071020	127.318008	435.110626	-59.156817	257.539954	1027.490651	-405.881579	299.830800	950.323347	-412.178596	335.626874	958.412630	-408.747045	297.530723	859.691536	-401.958396	339.607015	695.154226	-383.182466	331.901004	676.842944	-294.142915	277.752506	561.530663	-404.975155	272.533308	477.254257	-388.066074	222.599488	401.823085	-392.400679	278.714028	478.927790	-346.445963	168.565711	278.489716	-389.830318	94.512702	251.782333	-356.553334	377.339684	182.219569	-365.789626	290.198195	172.438629	-427.436926	-260.386261	962.188945	-237.785617	-82.799370	79.007084	-435.864345	-82.561761	79.198905	-38.377434	
